<svg width="51" height="58" viewBox="0 0 51 58" fill="none" xmlns="http://www.w3.org/2000/svg">
<path d="M50.9974 16.852C50.997 15.8882 50.7909 15.0365 50.374 14.3056C49.9646 13.5868 49.3514 12.9844 48.5288 12.5081C41.7393 8.59325 34.9432 4.69036 28.1559 0.771513C26.3261 -0.284874 24.552 -0.246362 22.7357 0.82519C20.0333 2.41895 6.50316 10.1706 2.47136 12.5059C0.810949 13.4671 0.00299317 14.9382 0.00259408 16.8502C0 24.7232 0.00259408 32.596 0 40.4692C0.000399089 41.4119 0.197749 42.247 0.596239 42.9669C1.0059 43.7074 1.62768 44.3264 2.46916 44.8135C6.50116 47.1488 20.0331 54.8999 22.7349 56.494C24.552 57.5662 26.3261 57.6045 28.1565 56.5477C34.944 52.6287 41.7405 48.726 48.531 44.8111C49.3725 44.3242 49.9943 43.7048 50.404 42.9649C50.8018 42.245 50.9996 41.4099 51 40.467C51 40.467 51 24.7252 50.9974 16.852Z" fill="#5C8DBC"/>
<path d="M25.578 28.583L0.596191 42.967C1.00586 43.7075 1.62764 44.3265 2.46912 44.8136C6.50112 47.1488 20.0331 54.8999 22.7349 56.4941C24.552 57.5663 26.3261 57.6046 28.1565 56.5478C34.9441 52.6287 41.7406 48.726 48.5311 44.8112C49.3726 44.3243 49.9943 43.7049 50.404 42.965L25.578 28.583Z" fill="#1A4674"/>
<path d="M18.1787 32.8436C19.6324 35.3814 22.3652 37.0931 25.5 37.0931C28.6542 37.0931 31.4025 35.3597 32.8488 32.7947L25.578 28.583L18.1787 32.8436Z" fill="#1A4674"/>
<path d="M50.9975 16.8522C50.9971 15.8884 50.791 15.0367 50.3741 14.3058L25.5781 28.5832L50.4041 42.9652C50.802 42.2452 50.9997 41.4101 51.0001 40.4673C51.0001 40.4673 51.0001 24.7254 50.9975 16.8522Z" fill="#1B598E"/>
<path d="M49.6322 29.6112H47.6922V31.5516H45.7518V29.6112H43.8121V27.6714H45.7518V25.7314H47.6922V27.6714H49.6322V29.6112ZM42.5533 29.6112H40.6136V31.5516H38.6736V29.6112H36.7336V27.6714H38.6736V25.7314H40.6136V27.6714H42.5533V29.6112Z" fill="white"/>
<path d="M32.8489 32.7947C31.4026 35.3596 28.6543 37.0931 25.5001 37.0931C22.3652 37.0931 19.6325 35.3814 18.1788 32.8436C17.4485 31.5702 17.065 30.1275 17.0665 28.6595C17.0665 24.002 20.8425 20.2262 25.5001 20.2262C28.6148 20.2262 31.3332 21.9165 32.794 24.4284L40.1654 20.1837C37.2355 15.126 31.7654 11.7234 25.5001 11.7234C16.1462 11.7234 8.56372 19.3061 8.56372 28.6595C8.56372 31.7281 9.38006 34.6058 10.8068 37.0879C13.7293 42.1723 19.215 45.5959 25.5001 45.5959C31.7967 45.5959 37.291 42.1585 40.2093 37.0592L32.8489 32.7947Z" fill="white"/>
</svg>
