<svg width="51" height="58" viewBox="0 0 51 58" fill="none" xmlns="http://www.w3.org/2000/svg">
<path d="M50.8867 16.8077C50.8867 15.8514 50.6829 14.9892 50.2596 14.2681C49.8521 13.5469 49.2406 12.9512 48.4255 12.4809C41.6531 8.57741 34.8651 4.67394 28.0927 0.770399C26.2585 -0.279956 24.5027 -0.24859 22.6843 0.817416C19.9879 2.40081 6.47448 10.1451 2.46126 12.4809C0.799487 13.4372 0 14.9108 0 16.8234V40.4012C0 41.3418 0.203784 42.1727 0.595703 42.8938C1.00334 43.6307 1.63041 44.2577 2.46126 44.7437C6.4902 47.0795 19.9879 54.8082 22.6843 56.4072C24.5027 57.473 26.2742 57.52 28.0927 56.4542C34.8651 52.535 41.6531 48.6472 48.4255 44.7437C49.272 44.2577 49.8834 43.6463 50.291 42.8938C50.6829 42.1727 50.8867 41.3418 50.8867 40.4012V16.8077Z" fill="#9A4993"/>
<path d="M25.5062 28.5182L0.564453 42.8781C0.972089 43.6149 1.59916 44.242 2.43001 44.728C6.45895 47.0638 19.9566 54.7924 22.653 56.3914C24.4715 57.4575 26.243 57.5045 28.0615 56.4384C34.8339 52.5193 41.6219 48.6314 48.3942 44.728C49.2407 44.242 49.8522 43.6306 50.2597 42.8781L25.5062 28.5182Z" fill="#6A1577"/>
<path d="M18.1223 32.7666C19.5803 35.3062 22.308 37.015 25.4277 37.015C28.5787 37.015 31.3222 35.2906 32.7644 32.7195L25.5061 28.5182L18.1223 32.7666Z" fill="#6A1577"/>
<path d="M50.8868 16.8077C50.8868 15.8515 50.6829 14.9892 50.2597 14.2681L25.5061 28.5183L50.291 42.8782C50.6829 42.157 50.8868 41.3262 50.8868 40.3856V16.8077Z" fill="#813084"/>
<path d="M32.7643 32.7195C31.3221 35.2748 28.5787 37.015 25.4276 37.015C22.2923 37.015 19.5646 35.3062 18.1223 32.7665C17.4168 31.5281 17.0092 30.1172 17.0092 28.5965C17.0092 23.9405 20.7716 20.1781 25.4276 20.1781C28.5316 20.1781 31.2437 21.8712 32.7017 24.3795L40.054 20.1467C37.1225 15.0989 31.667 11.697 25.412 11.697C16.0686 11.697 8.51245 19.2689 8.51245 28.5965C8.51245 31.6535 9.32759 34.5381 10.7542 37.015C13.6701 42.0785 19.1569 45.4961 25.4276 45.4961C31.714 45.4961 37.2009 42.0629 40.1167 36.9679L32.7643 32.7195ZM42.0606 24.599H40.3832V32.7039H42.0606V24.599ZM45.776 24.599H44.0986V32.7039H45.776V24.599Z" fill="white"/>
<path d="M47.14 25.9629H39.0352V27.6403H47.14V25.9629ZM47.14 29.6626H39.0352V31.34H47.14V29.6626Z" fill="white"/>
</svg>
