<svg width="43" height="60" viewBox="0 0 43 60" fill="none" xmlns="http://www.w3.org/2000/svg">
<path d="M3.86842 55.181L0 11.7915H42.508L38.6353 55.1742L21.2279 60.0002L3.86842 55.181Z" fill="#E44D26"/>
<path d="M21.254 56.3111L35.3199 52.4113L38.6295 15.3391H21.254V56.3111Z" fill="#F16529"/>
<path d="M21.2539 31.4318H14.2123L13.7259 25.9825H21.2539V20.6609H7.90991L8.03743 22.0886L9.34533 36.7532H21.2539V31.4318ZM21.2539 45.2523L21.2306 45.2587L15.304 43.6583L14.9251 39.4142H9.58318L10.3288 47.7699L21.2296 50.7959L21.2539 50.7891V45.2523Z" fill="#EBEBEB"/>
<path d="M3.95496 0H6.65924V2.67182H9.13301V0H11.8374V8.09101H9.13301V5.3817H6.65924V8.09101H3.95515L3.95496 0ZM15.3938 2.68322H13.0132V0H20.4804V2.68322H18.0986V8.09101H15.3939V2.68322H15.3938ZM21.6653 0H24.4853L26.22 2.84301L27.9529 0H30.7739V8.09101H28.0803V4.08057L26.2197 6.9574H26.1732L24.3113 4.08057V8.09101H21.6652V0H21.6653ZM32.1196 0H34.8246V5.41667H38.6279V8.09101H32.1196V0Z" fill="black"/>
<path d="M21.2356 31.4318V36.7533H27.7886L27.1708 43.655L21.2356 45.2568V50.7931L32.1451 47.7699L32.2249 46.8705L33.4756 32.8609L33.6054 31.4318H32.1715H21.2356ZM21.2356 20.6609V25.9825H34.0897L34.1963 24.7863L34.4388 22.0886L34.5661 20.6609H21.2356Z" fill="white"/>
</svg>
